<svg width="167" height="43" viewBox="0 0 167 43" fill="none" xmlns="http://www.w3.org/2000/svg">
<path d="M10.3955 1.30469L10.1914 4.46289L10.1162 4.48438C9.58626 3.68945 8.68392 3.17383 7.40918 2.9375C7.00814 2.85872 6.62142 2.81934 6.24902 2.81934C5.88379 2.81934 5.56868 2.85156 5.30371 2.91602C5.0459 2.98047 4.82389 3.07357 4.6377 3.19531C4.24382 3.45312 4.04688 3.78971 4.04688 4.20508C4.04688 4.74935 4.21875 5.15755 4.5625 5.42969C4.99219 5.75911 5.70475 5.99186 6.7002 6.12793C7.69564 6.25684 8.49414 6.43587 9.0957 6.66504C9.69727 6.89421 10.1914 7.18424 10.5781 7.53516C11.3086 8.19401 11.6738 9.125 11.6738 10.3281C11.6738 11.9036 11.0794 13.1175 9.89062 13.9697C8.8737 14.7002 7.5918 15.0654 6.04492 15.0654C4.79883 15.0654 3.56706 14.8291 2.34961 14.3564C1.94857 14.1989 1.59766 14.0163 1.29688 13.8086L1.41504 10.2207L1.45801 10.1885C2.34603 11.721 3.80339 12.4873 5.83008 12.4873C7.26953 12.4873 8.22201 12.14 8.6875 11.4453C8.84505 11.209 8.92383 10.9476 8.92383 10.6611C8.92383 10.3675 8.87728 10.1276 8.78418 9.94141C8.69108 9.74805 8.53711 9.58333 8.32227 9.44727C7.9069 9.17513 7.20866 8.99251 6.22754 8.89941C5.24642 8.80632 4.44434 8.63086 3.82129 8.37305C3.19824 8.11523 2.70052 7.79655 2.32812 7.41699C1.65495 6.72949 1.31836 5.76986 1.31836 4.53809C1.31836 3.26335 1.76595 2.2321 2.66113 1.44434C3.57064 0.642253 4.79525 0.241211 6.33496 0.241211C7.88184 0.241211 9.23535 0.595703 10.3955 1.30469ZM19.3115 12.4336C20.2354 12.4336 20.8691 12.1937 21.2129 11.7139H21.2988L21.3311 14.2061C20.9801 14.557 20.3285 14.7897 19.376 14.9043C19.1182 14.9401 18.7959 14.958 18.4092 14.958C18.0296 14.958 17.6143 14.8864 17.1631 14.7432C16.7191 14.5999 16.3395 14.3672 16.0244 14.0449C15.3727 13.3789 15.0469 12.3369 15.0469 10.9189V6.04199H13.4248C13.4176 5.83431 13.4141 5.62305 13.4141 5.4082V3.75391C13.4141 3.63216 13.4176 3.57129 13.4248 3.57129H15.0469V0.509766H17.6787V3.57129H20.6328V6.04199H17.6787V10.4248C17.6787 11.5492 17.9902 12.1901 18.6133 12.3477C18.8138 12.4049 19.0465 12.4336 19.3115 12.4336ZM30.9346 14.1309C29.9176 14.6823 28.9974 14.958 28.1738 14.958C27.3503 14.958 26.6449 14.8828 26.0576 14.7324C25.4704 14.5749 24.9727 14.3457 24.5645 14.0449C23.7337 13.4362 23.3184 12.5553 23.3184 11.4023C23.3184 10.3711 23.8268 9.51172 24.8438 8.82422C25.9466 8.07943 27.4434 7.70703 29.334 7.70703L29.7637 7.71777C29.8496 7.72493 29.9463 7.7321 30.0537 7.73926C30.1611 7.73926 30.2578 7.74642 30.3438 7.76074C30.2865 6.61491 29.7923 5.94531 28.8613 5.75195C28.5534 5.6875 28.224 5.65527 27.873 5.65527C27.5293 5.65527 27.1891 5.6875 26.8525 5.75195C26.5231 5.80924 26.2008 5.88802 25.8857 5.98828C25.1911 6.21029 24.6934 6.46452 24.3926 6.75098L24.3604 6.72949L24.0381 4.35547C25.3057 3.68945 26.6914 3.35645 28.1953 3.35645C30.5299 3.35645 32.0231 4.19792 32.6748 5.88086C32.8825 6.41797 32.9863 7.02311 32.9863 7.69629V11.585C32.9863 12.4157 33.2799 12.9814 33.8672 13.2822L31.9229 15.0654C31.5146 14.8506 31.1852 14.5391 30.9346 14.1309ZM30.3545 9.69434C30.1611 9.65853 29.9606 9.64062 29.7529 9.64062H29.3232C27.7406 9.64062 26.7344 9.99154 26.3047 10.6934C26.1758 10.901 26.1113 11.1195 26.1113 11.3486C26.1113 11.5778 26.1507 11.7819 26.2295 11.9609C26.3154 12.1328 26.4551 12.276 26.6484 12.3906C27.0208 12.6055 27.5723 12.7129 28.3027 12.7129C29.0404 12.7129 29.7279 12.5374 30.3652 12.1865C30.3581 12.1077 30.3545 12.0254 30.3545 11.9395V9.69434ZM38.8838 13.5938C38.8838 14.2096 38.8981 14.6107 38.9268 14.7969H36.252V3.57129H38.8838V4.39844C39.4925 3.70378 40.1299 3.35645 40.7959 3.35645C41.4691 3.35645 41.999 3.4388 42.3857 3.60352L42.1924 6.49316L42.1494 6.52539C41.8988 6.08138 41.3796 5.85938 40.5918 5.85938C40.291 5.85938 39.9831 5.96322 39.668 6.1709C39.36 6.37142 39.0986 6.63997 38.8838 6.97656V13.5938ZM48.6807 12.4336C49.6045 12.4336 50.2383 12.1937 50.582 11.7139H50.668L50.7002 14.2061C50.3493 14.557 49.6976 14.7897 48.7451 14.9043C48.4873 14.9401 48.165 14.958 47.7783 14.958C47.3988 14.958 46.9834 14.8864 46.5322 14.7432C46.0882 14.5999 45.7087 14.3672 45.3936 14.0449C44.7419 13.3789 44.416 12.3369 44.416 10.9189V6.04199H42.7939C42.7868 5.83431 42.7832 5.62305 42.7832 5.4082V3.75391C42.7832 3.63216 42.7868 3.57129 42.7939 3.57129H44.416V0.509766H47.0479V3.57129H50.002V6.04199H47.0479V10.4248C47.0479 11.5492 47.3594 12.1901 47.9824 12.3477C48.1829 12.4049 48.4157 12.4336 48.6807 12.4336ZM59.165 18.5352L59.874 17.9658C60.9411 17.0993 61.8255 15.821 62.5273 14.1309L63.0215 12.9385L58.9072 3.57129H61.915L64.4932 10.0596L66.8887 3.57129H69.9824C69.61 4.08691 69.1553 5.04655 68.6182 6.4502L67.0068 10.4355C64.8512 15.5059 63.1611 18.528 61.9365 19.502L59.165 18.5352ZM70.4014 9.24316C70.4014 8.4554 70.5339 7.70345 70.7988 6.9873C71.071 6.264 71.4577 5.63379 71.959 5.09668C73.0547 3.93652 74.4762 3.35645 76.2236 3.35645C77.9639 3.35645 79.346 3.9043 80.3701 5C81.3512 6.04557 81.8418 7.40267 81.8418 9.07129C81.8418 10.7399 81.3369 12.1221 80.3271 13.2178C79.2601 14.3779 77.8457 14.958 76.084 14.958C74.265 14.958 72.8398 14.3887 71.8086 13.25C70.8704 12.2116 70.4014 10.876 70.4014 9.24316ZM73.0117 9.17871C73.0117 9.62988 73.0869 10.0667 73.2373 10.4893C73.3877 10.9118 73.6025 11.2734 73.8818 11.5742C74.4762 12.2259 75.2568 12.5518 76.2236 12.5518C77.1188 12.5518 77.8242 12.2331 78.3398 11.5957C78.8411 10.9798 79.0918 10.1777 79.0918 9.18945C79.0918 8.18685 78.834 7.3776 78.3184 6.76172C77.7669 6.10286 77.0114 5.77344 76.0518 5.77344C75.0778 5.77344 74.3151 6.12435 73.7637 6.82617C73.2624 7.4707 73.0117 8.25488 73.0117 9.17871ZM90.8115 13.8193C89.8949 14.5785 88.8958 14.958 87.8145 14.958C86.6543 14.958 85.7448 14.5677 85.0859 13.7871C84.4557 13.028 84.1406 11.986 84.1406 10.6611V6.39648C84.1406 4.96419 84.1084 4.14421 84.0439 3.93652C83.9867 3.72168 83.9437 3.58561 83.915 3.52832C84.2445 3.55697 84.5882 3.57129 84.9463 3.57129H85.8379C86.0742 3.57129 86.3857 3.56055 86.7725 3.53906V9.75879C86.7725 11.234 87.1735 12.0898 87.9756 12.3262C88.2191 12.3978 88.484 12.4336 88.7705 12.4336C89.6156 12.4336 90.2959 12.1257 90.8115 11.5098V3.57129H93.4756V13.4219C93.4756 14.0521 93.5042 14.5104 93.5615 14.7969H90.8115V13.8193ZM99.4482 13.5938C99.4482 14.2096 99.4626 14.6107 99.4912 14.7969H96.8164V3.57129H99.4482V4.39844C100.057 3.70378 100.694 3.35645 101.36 3.35645C102.034 3.35645 102.563 3.4388 102.95 3.60352L102.757 6.49316L102.714 6.52539C102.463 6.08138 101.944 5.85938 101.156 5.85938C100.855 5.85938 100.548 5.96322 100.232 6.1709C99.9245 6.37142 99.6631 6.63997 99.4482 6.97656V13.5938ZM114.52 11.8105C114.255 12.1615 114.122 12.4408 114.122 12.6484C114.122 12.849 114.154 13.0065 114.219 13.1211C114.283 13.2285 114.423 13.3324 114.638 13.4326C115.11 13.6546 115.887 13.8516 116.969 14.0234C118.05 14.1882 118.895 14.3958 119.504 14.6465C120.12 14.8971 120.618 15.2051 120.997 15.5703C121.706 16.265 122.061 17.2497 122.061 18.5244C122.061 19.7992 121.613 20.7767 120.718 21.457C119.823 22.1445 118.494 22.4883 116.732 22.4883C114.956 22.4883 113.524 22.1016 112.436 21.3281C111.347 20.5547 110.788 19.527 110.76 18.2451C110.717 16.7555 111.3 15.6777 112.511 15.0117C112.181 14.7396 111.959 14.4209 111.845 14.0557C111.737 13.6833 111.684 13.2607 111.684 12.7881C111.684 11.9932 112.031 11.32 112.726 10.7686C111.916 10.0023 111.512 9.0498 111.512 7.91113C111.512 6.63639 111.97 5.56934 112.887 4.70996C113.854 3.80762 115.107 3.35645 116.646 3.35645C117.456 3.35645 118.215 3.50684 118.924 3.80762C119.855 3.41374 120.539 3.06999 120.976 2.77637C121.412 2.47559 121.692 2.25716 121.813 2.12109L121.878 2.13184C121.942 2.30371 122.018 2.5472 122.104 2.8623L122.297 3.63574C122.469 4.27311 122.573 4.70996 122.608 4.94629C122.293 5.29004 121.738 5.53353 120.943 5.67676C121.251 6.27116 121.405 6.90137 121.405 7.56738C121.405 8.2334 121.291 8.83854 121.062 9.38281C120.832 9.91992 120.507 10.3926 120.084 10.8008C119.146 11.6816 117.95 12.1221 116.496 12.1221C115.787 12.1221 115.128 12.0182 114.52 11.8105ZM114.24 6.97656C114.14 7.23438 114.09 7.49577 114.09 7.76074C114.09 8.02572 114.144 8.27995 114.251 8.52344C114.366 8.76693 114.53 8.98535 114.745 9.17871C115.225 9.6084 115.852 9.82324 116.625 9.82324C117.212 9.82324 117.721 9.6263 118.15 9.23242C118.602 8.80273 118.827 8.28711 118.827 7.68555C118.827 7.07682 118.623 6.58626 118.215 6.21387C117.807 5.84147 117.244 5.65527 116.528 5.65527C115.347 5.65527 114.584 6.0957 114.24 6.97656ZM116.872 20.2109C118.634 20.2109 119.515 19.5951 119.515 18.3633C119.515 17.776 119.228 17.3034 118.655 16.9453C118.011 16.5371 116.904 16.2184 115.336 15.9893L114.777 15.8926C114.305 16.1432 113.957 16.4655 113.735 16.8594C113.513 17.2533 113.402 17.6257 113.402 17.9766C113.41 18.3346 113.495 18.6426 113.66 18.9004C113.825 19.1582 114.054 19.3838 114.348 19.5771C114.999 19.9997 115.841 20.2109 116.872 20.2109ZM131.804 14.1309C130.787 14.6823 129.867 14.958 129.043 14.958C128.219 14.958 127.514 14.8828 126.927 14.7324C126.34 14.5749 125.842 14.3457 125.434 14.0449C124.603 13.4362 124.188 12.5553 124.188 11.4023C124.188 10.3711 124.696 9.51172 125.713 8.82422C126.816 8.07943 128.312 7.70703 130.203 7.70703L130.633 7.71777C130.719 7.72493 130.815 7.7321 130.923 7.73926C131.03 7.73926 131.127 7.74642 131.213 7.76074C131.156 6.61491 130.661 5.94531 129.73 5.75195C129.423 5.6875 129.093 5.65527 128.742 5.65527C128.398 5.65527 128.058 5.6875 127.722 5.75195C127.392 5.80924 127.07 5.88802 126.755 5.98828C126.06 6.21029 125.562 6.46452 125.262 6.75098L125.229 6.72949L124.907 4.35547C126.175 3.68945 127.561 3.35645 129.064 3.35645C131.399 3.35645 132.892 4.19792 133.544 5.88086C133.752 6.41797 133.855 7.02311 133.855 7.69629V11.585C133.855 12.4157 134.149 12.9814 134.736 13.2822L132.792 15.0654C132.384 14.8506 132.054 14.5391 131.804 14.1309ZM131.224 9.69434C131.03 9.65853 130.83 9.64062 130.622 9.64062H130.192C128.61 9.64062 127.604 9.99154 127.174 10.6934C127.045 10.901 126.98 11.1195 126.98 11.3486C126.98 11.5778 127.02 11.7819 127.099 11.9609C127.185 12.1328 127.324 12.276 127.518 12.3906C127.89 12.6055 128.441 12.7129 129.172 12.7129C129.91 12.7129 130.597 12.5374 131.234 12.1865C131.227 12.1077 131.224 12.0254 131.224 11.9395V9.69434ZM140.118 11.6924C140.118 13.3037 140.147 14.3385 140.204 14.7969H137.4V3.57129H140.118V4.53809C141.099 3.75033 142.105 3.35645 143.137 3.35645C144.354 3.35645 145.239 3.88281 145.79 4.93555C146.341 4.36979 146.8 3.9974 147.165 3.81836C147.774 3.51042 148.382 3.35645 148.991 3.35645C149.607 3.35645 150.13 3.46029 150.56 3.66797C150.989 3.87565 151.344 4.16927 151.623 4.54883C152.189 5.3151 152.472 6.36784 152.472 7.70703V11.9824C152.472 13.1927 152.49 13.9196 152.525 14.1631C152.561 14.4066 152.608 14.5641 152.665 14.6357C152.729 14.7074 152.783 14.7718 152.826 14.8291L152.805 14.8721C152.232 14.8219 151.809 14.7969 151.537 14.7969H150.731C150.466 14.7969 150.141 14.8076 149.754 14.8291V9.01758C149.754 7.3418 149.496 6.34635 148.98 6.03125C148.809 5.93099 148.604 5.88086 148.368 5.88086C148.139 5.88086 147.935 5.90951 147.756 5.9668C147.577 6.01693 147.409 6.10286 147.251 6.22461C146.986 6.41797 146.685 6.79753 146.349 7.36328C146.356 7.42057 146.359 7.47786 146.359 7.53516C146.359 7.59245 146.359 8.53776 146.359 10.3711C146.359 12.2044 146.402 13.6797 146.488 14.7969C145.88 14.7969 145.36 14.7969 144.931 14.7969C144.508 14.7969 144.104 14.8076 143.717 14.8291V9.00684C143.717 7.83952 143.645 7.0804 143.502 6.72949C143.366 6.37858 143.219 6.14941 143.062 6.04199C142.904 5.93457 142.711 5.88086 142.481 5.88086C141.536 5.88086 140.748 6.33561 140.118 7.24512V11.6924ZM155.05 9.27539C155.05 8.4375 155.193 7.66048 155.479 6.94434C155.766 6.22819 156.171 5.60156 156.693 5.06445C157.811 3.92578 159.271 3.35645 161.076 3.35645C162.602 3.35645 163.826 3.86133 164.75 4.87109C165.66 5.84505 166.114 7.06966 166.114 8.54492C166.114 9.11068 166.071 9.4974 165.985 9.70508C165.269 9.9056 163.812 10.0059 161.613 10.0059H157.832C158.018 10.7721 158.451 11.3701 159.132 11.7998C159.812 12.2223 160.697 12.4336 161.785 12.4336C162.924 12.4336 163.901 12.2295 164.718 11.8213C164.933 11.7139 165.094 11.6136 165.201 11.5205C165.187 11.8213 165.169 12.1292 165.147 12.4443L165.029 14.1201C164.485 14.4925 163.604 14.7503 162.387 14.8936C162.029 14.9365 161.685 14.958 161.355 14.958C159.536 14.958 158.033 14.4281 156.844 13.3682C155.648 12.3011 155.05 10.9368 155.05 9.27539ZM163.257 7.92188C162.963 6.38216 162.125 5.6123 160.743 5.6123C159.655 5.6123 158.827 6.08138 158.262 7.01953C158.09 7.30599 157.957 7.62109 157.864 7.96484C158.036 7.97201 158.247 7.97917 158.498 7.98633H159.293C159.558 7.99349 159.812 7.99707 160.056 7.99707H160.668C161.033 7.99707 161.391 7.99349 161.742 7.98633L162.623 7.9541C162.859 7.94694 163.071 7.9362 163.257 7.92188ZM-0.00292969 31.5713H2.88672L4.88477 39.6387L7.0332 31.5713H9.50391L11.7275 39.8105L13.7256 31.5713H16.3252L13.0166 42.7969H10.2344L8.10742 35.4385L6.13086 42.7969H3.37012L-0.00292969 31.5713ZM17.6572 28.3701C18.2301 27.4749 18.8281 26.6872 19.4512 26.0068L21.7607 27.8223C21.4528 28.2018 21.1663 28.5742 20.9014 28.9395C20.9014 28.9395 20.6257 29.3298 20.0742 30.1104L17.6572 28.3701ZM20.4824 41.5938C20.4824 42.2096 20.4967 42.6107 20.5254 42.7969H17.7969V31.5713H20.4824V41.5938ZM28.5068 40.4336C29.4307 40.4336 30.0645 40.1937 30.4082 39.7139H30.4941L30.5264 42.2061C30.1755 42.557 29.5238 42.7897 28.5713 42.9043C28.3135 42.9401 27.9912 42.958 27.6045 42.958C27.2249 42.958 26.8096 42.8864 26.3584 42.7432C25.9144 42.5999 25.5348 42.3672 25.2197 42.0449C24.568 41.3789 24.2422 40.3369 24.2422 38.9189V34.042H22.6201C22.613 33.8343 22.6094 33.623 22.6094 33.4082V31.7539C22.6094 31.6322 22.613 31.5713 22.6201 31.5713H24.2422V28.5098H26.874V31.5713H29.8281V34.042H26.874V38.4248C26.874 39.5492 27.1855 40.1901 27.8086 40.3477C28.0091 40.4049 28.2419 40.4336 28.5068 40.4336ZM35.6289 41.5938C35.6289 42.2096 35.6432 42.6107 35.6719 42.7969H32.9971V27.4355H35.6289V32.4092C36.5527 31.7074 37.5052 31.3564 38.4863 31.3564C39.6895 31.3564 40.6562 31.7539 41.3867 32.5488C42.1029 33.3438 42.4609 34.3965 42.4609 35.707V39.9824C42.4609 41.1927 42.4788 41.9196 42.5146 42.1631C42.5505 42.4066 42.597 42.5641 42.6543 42.6357C42.7188 42.7074 42.7725 42.7718 42.8154 42.8291L42.7939 42.8721C42.2139 42.8219 41.7913 42.7969 41.5264 42.7969H40.7637C40.5273 42.7969 40.2158 42.8076 39.8291 42.8291V36.6094C39.8291 35.6211 39.6107 34.8906 39.1738 34.418C38.8444 34.0599 38.3968 33.8809 37.8311 33.8809C36.9932 33.8809 36.2591 34.3643 35.6289 35.3311V41.5938ZM57.833 40.4336C58.7568 40.4336 59.3906 40.1937 59.7344 39.7139H59.8203L59.8525 42.2061C59.5016 42.557 58.8499 42.7897 57.8975 42.9043C57.6396 42.9401 57.3174 42.958 56.9307 42.958C56.5511 42.958 56.1357 42.8864 55.6846 42.7432C55.2406 42.5999 54.861 42.3672 54.5459 42.0449C53.8942 41.3789 53.5684 40.3369 53.5684 38.9189V34.042H51.9463C51.9391 33.8343 51.9355 33.623 51.9355 33.4082V31.7539C51.9355 31.6322 51.9391 31.5713 51.9463 31.5713H53.5684V28.5098H56.2002V31.5713H59.1543V34.042H56.2002V38.4248C56.2002 39.5492 56.5117 40.1901 57.1348 40.3477C57.3353 40.4049 57.568 40.4336 57.833 40.4336ZM64.9551 41.5938C64.9551 42.2096 64.9694 42.6107 64.998 42.7969H62.3232V27.4355H64.9551V32.4092C65.8789 31.7074 66.8314 31.3564 67.8125 31.3564C69.0156 31.3564 69.9824 31.7539 70.7129 32.5488C71.429 33.3438 71.7871 34.3965 71.7871 35.707V39.9824C71.7871 41.1927 71.805 41.9196 71.8408 42.1631C71.8766 42.4066 71.9232 42.5641 71.9805 42.6357C72.0449 42.7074 72.0986 42.7718 72.1416 42.8291L72.1201 42.8721C71.54 42.8219 71.1175 42.7969 70.8525 42.7969H70.0898C69.8535 42.7969 69.542 42.8076 69.1553 42.8291V36.6094C69.1553 35.6211 68.9368 34.8906 68.5 34.418C68.1706 34.0599 67.723 33.8809 67.1572 33.8809C66.3193 33.8809 65.5853 34.3643 64.9551 35.3311V41.5938ZM74.333 37.2754C74.333 36.4375 74.4762 35.6605 74.7627 34.9443C75.0492 34.2282 75.4538 33.6016 75.9766 33.0645C77.0938 31.9258 78.5547 31.3564 80.3594 31.3564C81.8848 31.3564 83.1094 31.8613 84.0332 32.8711C84.9427 33.8451 85.3975 35.0697 85.3975 36.5449C85.3975 37.1107 85.3545 37.4974 85.2686 37.7051C84.5524 37.9056 83.0951 38.0059 80.8965 38.0059H77.1152C77.3014 38.7721 77.7347 39.3701 78.415 39.7998C79.0954 40.2223 79.9798 40.4336 81.0684 40.4336C82.207 40.4336 83.1846 40.2295 84.001 39.8213C84.2158 39.7139 84.377 39.6136 84.4844 39.5205C84.4701 39.8213 84.4521 40.1292 84.4307 40.4443L84.3125 42.1201C83.7682 42.4925 82.8874 42.7503 81.6699 42.8936C81.3118 42.9365 80.9681 42.958 80.6387 42.958C78.8197 42.958 77.3158 42.4281 76.127 41.3682C74.931 40.3011 74.333 38.9368 74.333 37.2754ZM82.54 35.9219C82.2464 34.3822 81.4085 33.6123 80.0264 33.6123C78.9378 33.6123 78.1107 34.0814 77.5449 35.0195C77.373 35.306 77.2406 35.6211 77.1475 35.9648C77.3193 35.972 77.5306 35.9792 77.7812 35.9863H78.5762C78.8411 35.9935 79.0954 35.9971 79.3389 35.9971H79.9512C80.3164 35.9971 80.6745 35.9935 81.0254 35.9863L81.9062 35.9541C82.1426 35.9469 82.3538 35.9362 82.54 35.9219ZM97.7295 31.9795C98.5316 31.5641 99.3516 31.3564 100.189 31.3564C101.027 31.3564 101.747 31.4889 102.349 31.7539C102.957 32.0117 103.491 32.3841 103.949 32.8711C104.945 33.9525 105.442 35.3203 105.442 36.9746C105.442 38.7865 104.902 40.2474 103.82 41.3574C102.782 42.4245 101.489 42.958 99.9424 42.958C98.5817 42.958 97.4609 42.6035 96.5801 41.8945C95.5918 41.0924 95.0977 39.986 95.0977 38.5752V26.8125H97.7295V31.9795ZM97.7295 38.543C97.7295 39.8034 98.5137 40.4336 100.082 40.4336C100.848 40.4336 101.493 40.097 102.016 39.4238C102.546 38.7363 102.811 37.8805 102.811 36.8564C102.811 35.8252 102.531 35.0482 101.973 34.5254C101.471 34.0599 100.798 33.8271 99.9531 33.8271C99.4447 33.8271 98.8825 33.999 98.2666 34.3428C98.0732 34.4502 97.8942 34.5684 97.7295 34.6973V38.543ZM107.269 37.2754C107.269 36.4375 107.412 35.6605 107.698 34.9443C107.985 34.2282 108.389 33.6016 108.912 33.0645C110.029 31.9258 111.49 31.3564 113.295 31.3564C114.82 31.3564 116.045 31.8613 116.969 32.8711C117.878 33.8451 118.333 35.0697 118.333 36.5449C118.333 37.1107 118.29 37.4974 118.204 37.7051C117.488 37.9056 116.031 38.0059 113.832 38.0059H110.051C110.237 38.7721 110.67 39.3701 111.351 39.7998C112.031 40.2223 112.915 40.4336 114.004 40.4336C115.143 40.4336 116.12 40.2295 116.937 39.8213C117.151 39.7139 117.312 39.6136 117.42 39.5205C117.406 39.8213 117.388 40.1292 117.366 40.4443L117.248 42.1201C116.704 42.4925 115.823 42.7503 114.605 42.8936C114.247 42.9365 113.904 42.958 113.574 42.958C111.755 42.958 110.251 42.4281 109.062 41.3682C107.867 40.3011 107.269 38.9368 107.269 37.2754ZM115.476 35.9219C115.182 34.3822 114.344 33.6123 112.962 33.6123C111.873 33.6123 111.046 34.0814 110.48 35.0195C110.309 35.306 110.176 35.6211 110.083 35.9648C110.255 35.972 110.466 35.9792 110.717 35.9863H111.512C111.777 35.9935 112.031 35.9971 112.274 35.9971H112.887C113.252 35.9971 113.61 35.9935 113.961 35.9863L114.842 35.9541C115.078 35.9469 115.289 35.9362 115.476 35.9219ZM124.456 42.958C122.437 42.958 120.915 42.5892 119.891 41.8516C119.905 41.6367 119.926 41.3932 119.955 41.1211L120.052 40.3477C120.109 39.8392 120.145 39.5241 120.159 39.4023C120.174 39.2734 120.184 39.2054 120.191 39.1982C120.199 39.1839 120.256 39.2412 120.363 39.3701C120.471 39.4919 120.675 39.6423 120.976 39.8213C121.276 40.0003 121.624 40.1579 122.018 40.2939C122.87 40.5876 123.758 40.7344 124.682 40.7344C125.921 40.7344 126.54 40.3226 126.54 39.499C126.54 39.234 126.422 39.0371 126.186 38.9082C125.763 38.6934 125.14 38.5322 124.316 38.4248C123.5 38.3102 122.83 38.1455 122.308 37.9307C121.785 37.7158 121.359 37.458 121.029 37.1572C120.421 36.5915 120.116 35.8503 120.116 34.9336C120.116 33.8164 120.546 32.9391 121.405 32.3018C122.257 31.6715 123.436 31.3564 124.939 31.3564C126.429 31.3564 127.7 31.779 128.753 32.624C128.703 32.8102 128.649 32.9893 128.592 33.1611C128.427 33.6338 128.305 33.974 128.227 34.1816L127.979 34.8154C127.965 34.8727 127.954 34.9014 127.947 34.9014C127.933 34.9014 127.876 34.8262 127.775 34.6758C127.324 34.153 126.622 33.8092 125.67 33.6445C125.376 33.5872 125.076 33.5586 124.768 33.5586C123.464 33.5586 122.812 33.9525 122.812 34.7402C122.812 35.0124 122.949 35.2201 123.221 35.3633C123.729 35.6354 124.424 35.8359 125.305 35.9648C126.193 36.0938 126.866 36.2692 127.324 36.4912C127.783 36.7061 128.151 36.9674 128.431 37.2754C128.946 37.834 129.204 38.5752 129.204 39.499C129.204 40.5088 128.799 41.3288 127.99 41.959C127.145 42.625 125.967 42.958 124.456 42.958ZM136.681 40.4336C137.604 40.4336 138.238 40.1937 138.582 39.7139H138.668L138.7 42.2061C138.349 42.557 137.698 42.7897 136.745 42.9043C136.487 42.9401 136.165 42.958 135.778 42.958C135.399 42.958 134.983 42.8864 134.532 42.7432C134.088 42.5999 133.709 42.3672 133.394 42.0449C132.742 41.3789 132.416 40.3369 132.416 38.9189V34.042H130.794C130.787 33.8343 130.783 33.623 130.783 33.4082V31.7539C130.783 31.6322 130.787 31.5713 130.794 31.5713H132.416V28.5098H135.048V31.5713H138.002V34.042H135.048V38.4248C135.048 39.5492 135.359 40.1901 135.982 40.3477C136.183 40.4049 136.416 40.4336 136.681 40.4336Z" fill="url(#paint0_linear_542_1718)"/>
<defs>
<linearGradient id="paint0_linear_542_1718" x1="-0.078125" y1="28.9957" x2="319.7" y2="28.9957" gradientUnits="userSpaceOnUse">
<stop stop-color="#EBE2F4"/>
<stop offset="1" stop-color="#14FF00"/>
</linearGradient>
</defs>
</svg>
