<svg width="33" height="27" viewBox="0 0 33 27" fill="none" xmlns="http://www.w3.org/2000/svg">
<path d="M32.9129 3.1395C31.7359 3.6625 30.4719 4.0155 29.1429 4.1725C30.4979 3.3605 31.5389 2.0745 32.0299 0.5425C30.7609 1.2935 29.3569 1.8415 27.8619 2.1345C26.6639 0.8595 24.9579 0.0625 23.0689 0.0625C19.4439 0.0625 16.5069 3.0005 16.5069 6.6255C16.5069 7.1395 16.5639 7.6415 16.6759 8.1215C11.2209 7.8475 6.3849 5.2345 3.1469 1.2635C2.5829 2.2335 2.2589 3.3605 2.2589 4.5635C2.2589 6.8415 3.4179 8.8495 5.1779 10.0275C4.1029 9.9925 3.0909 9.6985 2.2059 9.2065C2.2049 9.2335 2.2049 9.2625 2.2049 9.2885C2.2049 12.4695 4.4669 15.1225 7.4699 15.7255C6.9199 15.8745 6.3399 15.9555 5.7409 15.9555C5.3169 15.9555 4.9069 15.9145 4.5069 15.8385C5.3409 18.4445 7.7659 20.3425 10.6369 20.3965C8.3919 22.1565 5.5619 23.2075 2.4869 23.2075C1.9569 23.2075 1.4339 23.1765 0.920898 23.1155C3.8249 24.9755 7.2749 26.0625 10.9819 26.0625C23.0539 26.0625 29.6569 16.0615 29.6569 7.3875C29.6569 7.1035 29.6489 6.8195 29.6369 6.5375C30.9199 5.6125 32.0319 4.4575 32.9129 3.1395Z" fill="#55ACEE"/>
</svg>
